Grateful Dead
Avalon Ballroom
San Francisco, CA
Sunday April 6th, 1969

Source Info:
FM Broadcast (KPFA/KPFB)> Tom Ordon's Master FM Reels > Matt Smith's 1st Generation Reels

Transfer Info:
1st Generation Reels (Technics RS-1506)> Tascam DA-3000 (DSF 1-bit/5.6 MHz) > dBpoweramp .wav 24/96 > Adobe Audition 3.0 24/96 > TLH flac2496

Notes:
- Thanks to Tom Ordon for recording the FM broadcast
- Thanks to Matt Smith for the 1st Generation Reel source and transfer
- Thanks to Charlie Miller for coordinating this effort
- DJ banter and tunings intact
- "Good Morning Little Schoolgirl" fades in , several minutes missing
- Cut in "Good Morning Little Schoolgirl"
- First notes of "Cryptical Envelopment" clipped
- Conclusion of "Viola Lee Blues" sung acapella after the plug is pulled on their instruments, presumably, for playing past curfew
- Pitch corrected

Mastered by Scott Clugston
May 31, 2018

Set One:
t01 - DJ Intro >
      //Good Morning Little Schoolgirl
t02 - Beat It On Down The Line 
t03 - It's All Over Now, Baby Blue 
t04 - I'm A King Bee 

Set Two:
t05 - DJ Intro >
      //Cryptical Envelopment > 
      Drums > 
t06 - The Other One > 
t07 - Cryptical Envelopment > 
t08 - Death Don't Have No Mercy 
t09 - Turn On Your Lovelight
t10 - Viola Lee Blues 


    length     expanded size    cdr  WAVE problems  fmt   ratio  filename
     7:53.827     272924204 B   cxx   --   ---xx   flac  0.6702  gd69-04-06 t01 Good Morning Little Schoolgirl.flac
     3:30.280     121121324 B   cxx   --   ---xx   flac  0.6765  gd69-04-06 t02 Beat It On Down The Line.flac
     7:55.693     273999404 B   cxx   --   ---xx   flac  0.6562  gd69-04-06 t03 It's All Over, Baby Blue.flac
     7:46.360     268623404 B   cxx   --   ---xx   flac  0.6705  gd69-04-06 t04 I'm A King Bee.flac
     2:11.520      75755564 B   cxx   --   ---xx   flac  0.6975  gd69-04-06 t05 Cryptical-Drums.flac
    10:52.720     375966764 B   cxx   --   ---xx   flac  0.7105  gd69-04-06 t06 The Other One.flac
    10:14.133     353740844 B   cxx   --   ---xx   flac  0.7054  gd69-04-06 t07 Cryptical Envelopment.flac
    11:52.693     410511404 B   cxx   --   ---xx   flac  0.6935  gd69-04-06 t08 Death Don't Have No Mercy.flac
    25:06.760     867893804 B   cxx   --   ---xx   flac  0.7063  gd69-04-06 t09 Turn On Your Lovelight.flac
    12:52.961     445225382 B   cxx   --   ---xx   flac  0.7110  gd69-04-06 t10 Viola Lee Blues.flac
   100:16.947    3465762098 B                            0.6949  (10 files)

No errors occured.


daa5a5e258bd7893ebe12024bbd10a8a *gd69-04-06 t01 Good Morning Little Schoolgirl.flac
1968bdf2d58b650703d34f65278ea55b *gd69-04-06 t02 Beat It On Down The Line.flac
c91031bf376d24d6d0a541fe7c993f23 *gd69-04-06 t03 It's All Over, Baby Blue.flac
368649273722f5bbe9525e4a91b31776 *gd69-04-06 t04 I'm A King Bee.flac
a941ea4dc9f64ceae803fd9ca893b9f6 *gd69-04-06 t05 Cryptical-Drums.flac
4ae108cc02eae4e8a12b30b318eca01c *gd69-04-06 t06 The Other One.flac
5902da6e476e72d9f2cc1152f5ff52e6 *gd69-04-06 t07 Cryptical Envelopment.flac
3d6d742ceadbc1eed9088e98235917e7 *gd69-04-06 t08 Death Don't Have No Mercy.flac
759ae4d4fe74f39bc4bde36b51f4bc89 *gd69-04-06 t09 Turn On Your Lovelight.flac
90b47d1be88160153034f72c32d405cc *gd69-04-06 t10 Viola Lee Blues.flac

No errors occured.


